<?xml version="1.0" encoding="UTF-8"?>
<!DOCTYPE svg PUBLIC "-//W3C//DTD SVG 1.1//EN" "http://www.w3.org/Graphics/SVG/1.1/DTD/svg11.dtd">
<!-- Creator: CorelDRAW -->
<svg xmlns="http://www.w3.org/2000/svg" xml:space="preserve" width="2048px" height="2048px" style="shape-rendering:geometricPrecision; text-rendering:geometricPrecision; image-rendering:optimizeQuality; fill-rule:evenodd; clip-rule:evenodd"
viewBox="0 0 2048 2048"
 xmlns:xlink="http://www.w3.org/1999/xlink">
 <defs>
  <style type="text/css">
   <![CDATA[
    .fil0 {fill:#9E9E9E}
    .fil1 {fill:#FFFFFE;fill-rule:nonzero}
   ]]>
  </style>
 </defs>
 <g id="Layer_x0020_1">
  <metadata id="CorelCorpID_0Corel-Layer"/>
  <rect class="fil0" width="2048" height="2048" rx="256.001" ry="256.001"/>
  <path class="fil1" d="M1024.58 352.099c159.226,0 303.381,64.5414 407.729,168.889 104.347,104.349 168.887,248.505 168.887,407.735 0,98.0587 -24.6118,190.54 -68.0115,271.61 -19.5414,36.5055 -42.8906,70.6524 -69.5091,101.916 -2.80984,4.19646 -6.26457,7.86142 -10.1929,11.1402 -22.3288,3.59882 -42.1453,12.5303 -63.4205,22.6606 -5.2193,2.48504 -19.4953,9.59174 -26.6528,11.1945l-3.08977 0.115748c-5.91851,-1.15276 -17.5158,-6.64134 -24.2918,-9.8882 -1.24725,-0.597638 -2.3315,-1.11969 -3.18662,-1.5248 -27.8303,-13.1811 -53.0008,-24.1158 -84.7383,-24.0567 -31.7055,0.0590552 -56.8134,11.0835 -84.5717,24.3543 -5.74843,2.74725 -22.252,11.0197 -28.4835,11.5795 -6.34016,-0.598819 -22.9748,-8.88662 -28.8437,-11.6693 -27.8551,-13.2118 -53.0386,-24.1807 -84.8103,-24.1229 -32.2807,0.0590552 -54.3662,12.0697 -82.9442,23.7591 -31.7374,12.9815 -28.8414,12.9413 -60.7276,0.125197 -28.4233,-11.4224 -50.6304,-23.3658 -82.6985,-23.3658 -31.9488,0 -54.2386,12.1831 -82.5544,23.5146 -0.637796,0.255118 -1.2626,0.505512 -1.87323,0.751182 -29.8347,11.9787 -27.8292,11.9079 -58.4611,-0.755906 -20.2323,-8.36457 -37.5402,-16.8591 -57.3827,-21.0744 -3.76654,-5.20394 -7.41851,-10.4728 -8.55355,-11.8725 -27.0307,-31.624 -50.7071,-66.2103 -70.4682,-103.21 -43.252,-80.98 -67.7729,-173.309 -67.7729,-271.181 0,-159.229 64.5414,-303.388 168.889,-407.735 104.347,-104.348 248.504,-168.889 407.733,-168.889z"/>
  <path class="fil1" d="M232.956 1403.04c15.3673,-15.2528 30.7418,-30.5079 47.7248,-42.091 40.1847,-27.4051 87.7642,-19.004 128.621,2.03386 42.5457,16.4516 45.7323,17.4721 88.6796,2.61024 22.3288,-10.6701 44.641,-21.3284 70.9217,-21.3284 26.1662,0 48.593,10.6878 71.0067,21.3697 39.5185,13.9488 42.4618,13.8992 84.4489,0.141732 22.2626,-10.6087 44.537,-21.2244 70.6654,-21.2244 26.1626,0 48.4654,10.5295 70.7646,21.0579 41.2252,13.8083 43.9689,13.6583 84.776,-0.199606 22.1244,-10.6642 44.2536,-21.3284 70.8875,-21.3768 26.5855,-0.0484252 48.8079,10.4917 71.0398,21.0354 15.5634,7.3819 31.1362,14.7673 42.5398,14.7673 11.511,0 26.9114,-7.36182 42.3024,-14.7201 22.1492,-10.5886 44.2949,-21.1736 70.8296,-21.2244 26.5831,-0.0484252 48.7831,10.4646 70.9808,20.9776 15.5032,7.34292 31.0087,14.687 42.3756,14.687 11.6067,0 26.9587,-7.30985 42.3,-14.6138 22.3063,-10.6228 44.6055,-21.2398 70.6938,-21.2398 26.2607,0 48.4347,10.513 70.6926,21.065 15.7441,7.46457 31.5532,14.9599 42.9591,14.9811 12.8185,0.022441 30.3225,-8.79922 47.2441,-17.328 19.6595,-9.90709 38.7591,-15.8882 60.3248,-18.1937 49.415,-5.27481 80.1012,20.6788 114.879,54.3733l-46.0996 42.0614c-36.2209,-30.6981 -55.8863,-43.0004 -99.352,-24.5717 -23.6705,11.9303 -48.1512,24.2681 -76.9961,24.2162 -26.9469,-0.0519685 -49.2496,-10.6252 -71.4615,-21.1571 -39.8303,-15.0024 -43.1315,-15.2528 -84.3816,-0.0625985 -22.324,10.6287 -44.6611,21.2646 -70.8024,21.2646 -26.3268,0 -48.6048,-10.5508 -70.878,-21.0992 -40.9288,-14.5961 -43.5827,-14.6067 -84.5575,0.00826772 -22.3441,10.6831 -44.7048,21.3709 -71.0528,21.3709 -26.3847,0 -48.7205,-10.5921 -71.0422,-21.1795 -38.7626,-14.9858 -41.354,-15.124 -84.6745,0.102756 -22.0406,10.6228 -44.087,21.2457 -70.6595,21.3756l0 0.0011811 -0.0980316 0 -0.0271654 0c-26.4992,0.0673229 -48.7465,-10.4374 -70.9938,-20.9386 -37.3748,-16.0205 -40.741,-16.1398 -84.6757,-0.0708662 -22.174,10.5673 -44.3422,21.1311 -70.6737,21.0792 -26.3528,-0.0484252 -48.5622,-10.6347 -70.78,-21.2221 -40.7989,-15.3484 -44.2725,-15.4536 -84.6757,-0.0413386 -22.1906,10.6016 -44.4071,21.215 -71.0398,21.2634 -29.0374,0.0555119 -53.4059,-12.4913 -76.891,-24.5847 -42.0343,-17.6528 -62.6327,-5.74961 -96.0272,24.724l-49.8178 -38.1z"/>
  <path class="fil1" d="M464.026 1528.99c14.8051,-14.7272 29.6138,-29.4579 46.3689,-40.8142 20.5016,-13.8957 42.789,-22.1103 68.6434,-18.9603 20.5358,2.5063 38.9162,11.9835 57.9449,21.7937 16.4492,8.48268 33.5941,17.3221 46.1611,17.3433 11.3433,0.0200788 26.7544,-7.18465 42.1677,-14.3917 22.2626,-10.4102 44.5382,-20.8252 70.669,-20.8252 26.1638,0 48.4678,10.3311 70.7693,20.6622 15.6414,7.24489 31.2839,14.491 42.6485,14.4874 11.1862,-0.056693 26.6528,-7.37127 42.117,-14.6835 22.1268,-10.4634 44.2571,-20.9268 70.8934,-20.974 26.5855,-0.0472441 48.8079,10.2933 71.0398,20.6374 15.5634,7.24253 31.1362,14.4874 42.5398,14.4874 11.5099,0 26.9103,-7.22127 42.2989,-14.4378 22.1528,-10.3902 44.2996,-20.7756 70.8331,-20.8229 26.5819,-0.0472441 48.7819,10.2673 70.9796,20.5819 15.5032,7.20355 31.0087,14.4083 42.3768,14.4083 12.9165,0 29.9185,-8.77087 46.2792,-17.2099 18.952,-9.77481 37.3051,-19.2425 57.7406,-21.8776 25.6973,-3.31418 48.2174,4.4752 69.1418,17.8146 17.2205,10.9795 32.6162,25.3488 48,39.7122l-45.2528 41.9374c-13.1469,-12.2752 -26.3008,-24.5528 -38.7496,-32.4898 -8.74725,-5.57717 -17.0351,-8.97875 -24.3898,-8.03032 -9.16536,1.1811 -22.2402,7.92638 -35.739,14.889 -23.6705,12.2091 -48.2693,24.8988 -77.0304,24.8988 -26.328,0 -48.6059,-10.35 -70.8792,-20.7 -15.6484,-7.27087 -31.3004,-14.5429 -42.4772,-14.5228 -11.1413,0.0200788 -26.6103,7.27442 -42.0827,14.5311 -22.3429,10.4776 -44.7024,20.9622 -71.0493,20.9622 -26.3847,0 -48.7205,-10.3925 -71.0422,-20.7791 -15.6898,-7.3004 -31.3772,-14.5984 -42.5374,-14.5795 -11.1331,0.0200788 -26.6398,7.35237 -42.1429,14.6835 -22.0725,10.4374 -44.1485,20.876 -70.6536,20.9752l-0.125197 0c-26.4284,0.0944883 -48.7099,-10.226 -70.989,-20.5465 -15.5102,-7.18465 -31.0229,-14.3705 -42.5174,-14.3705 -11.5819,0 -26.8795,7.15158 -42.1666,14.3008 -22.1717,10.3665 -44.3363,20.7307 -70.6701,20.6835 -28.9146,-0.0519685 -53.4095,-12.6803 -76.9123,-24.7996 -13.5437,-6.98386 -26.6268,-13.728 -35.4449,-14.8051 -6.81969,-0.830316 -14.6138,2.63386 -22.8898,8.24174 -12.0236,8.14961 -24.6992,20.7591 -37.3689,33.3614l-46.5024 -40.7729z"/>
  <path class="fil1" d="M684.819 1655.38c15.6768,-14.6728 31.3654,-29.354 49.1091,-40.7398 21.2398,-13.6288 43.9878,-21.6154 69.7323,-18.3177 21.1051,2.70236 39.7075,12.4264 58.8355,22.4232 16.6453,8.70001 33.8575,17.6941 46.513,17.648 11.0669,-0.0401575 26.5524,-7.5626 42.0343,-15.0827 22.1244,-10.7492 44.2536,-21.4984 70.8875,-21.548 26.5843,-0.0519685 48.8115,10.5744 71.0445,21.2032 15.5622,7.43977 31.1327,14.8854 42.5351,14.8854 12.6189,0 29.3977,-8.78032 45.6969,-17.3091 19.5225,-10.2177 38.5701,-20.1839 60.0945,-22.6583 49.0855,-5.6504 85.232,27.8008 121.374,61.2485l0.125197 0.120473 0.0437008 0.0401575 -29.915 29.4461 -14.5051 14.4378c-25.2284,-23.3469 -50.4603,-46.6973 -69.6225,-44.4922 -9.63544,1.10787 -23.1957,8.20394 -37.0937,15.4772 -23.5122,12.3036 -47.7166,24.9697 -76.1977,24.9697 -26.3835,0 -48.717,-10.6772 -71.0375,-21.3484 -15.6898,-7.50119 -31.3784,-15.0012 -42.5422,-14.9799 -11.1307,0.0212599 -26.6362,7.55197 -42.137,15.0839 -22.0748,10.7232 -44.1567,21.45 -70.7847,21.5469 -28.8461,0.106299 -53.3327,-12.6921 -77.0138,-25.0689 -13.8709,-7.24843 -27.3626,-14.302 -36.5859,-15.4819 -7.95355,-1.01929 -16.7587,2.58662 -25.9795,8.50394 -12.7158,8.15906 -26.4166,20.9799 -40.1091,33.7973l-44.5016 -43.8048z"/>
 </g>
</svg>
