<?xml version="1.0" encoding="UTF-8"?>
<!DOCTYPE svg PUBLIC "-//W3C//DTD SVG 1.1//EN" "http://www.w3.org/Graphics/SVG/1.1/DTD/svg11.dtd">
<!-- Creator: CorelDRAW -->
<svg xmlns="http://www.w3.org/2000/svg" xml:space="preserve" width="2048px" height="2048px" style="shape-rendering:geometricPrecision; text-rendering:geometricPrecision; image-rendering:optimizeQuality; fill-rule:evenodd; clip-rule:evenodd"
viewBox="0 0 2048 2048"
 xmlns:xlink="http://www.w3.org/1999/xlink">
 <defs>
  <style type="text/css">
   <![CDATA[
    .fil0 {fill:#FF5722}
    .fil1 {fill:#FFFFFE;fill-rule:nonzero}
   ]]>
  </style>
 </defs>
 <g id="Layer_x0020_1">
  <metadata id="CorelCorpID_0Corel-Layer"/>
  <rect class="fil0" width="2048" height="2048" rx="256.001" ry="256.001"/>
  <g id="_351063760">
   <path id="_351062944" class="fil1" d="M1038.81 283.289c8.61024,6.95197 14.7543,16.7268 16.3087,29.2796 34.4918,276.031 143.365,439.192 239.969,583.969 93.9686,140.828 176.908,265.125 176.908,456.602 0,125.26 -52.689,238.732 -136.686,321.121 -84.5823,82.9607 -200.973,134.338 -327.246,134.338 -126.232,0 -242.606,-51.3815 -327.175,-134.348 -83.98,-82.3879 -136.664,-195.859 -136.664,-321.11 0,-191.488 82.9335,-315.788 176.901,-456.628 96.5906,-144.773 205.448,-307.93 239.977,-583.937l0.0153543 0.00236221c1.56851,-12.5634 7.69489,-22.3453 16.2791,-29.2855 8.49213,-6.86575 19.278,-10.3913 29.8618,-10.5709l0.493701 -0.122835 0.693308 0 0.493701 0.122835c10.578,0.179528 21.3638,3.70276 29.8701,10.5685z"/>
   <path id="_351066160" class="fil1" d="M902.226 1625.43c-56.1426,-17.8453 -99.5375,-51.7654 -130.308,-92.3091 -35.6221,-46.9418 -54.2788,-103.018 -56.1414,-153.3 -3.90355,-105.372 31.8154,-179.395 67.8189,-254.01 14.4449,-29.9339 28.9394,-59.9764 40.5059,-92.3776 28.1847,-42.4288 67.6819,-20.4036 61.4351,21.9236 -12.3378,34.565 -27.8528,66.7146 -43.3099,98.7509 -32.504,67.3619 -64.7504,134.191 -61.4457,223.419 1.40433,37.9252 15.6543,80.4556 42.8847,116.339 23.224,30.6 55.9288,56.1886 98.1875,69.619 53.2961,19.0453 24.8492,70.1481 -19.6276,61.9465z"/>
  </g>
 </g>
</svg>
