<?xml version="1.0" encoding="UTF-8"?>
<!DOCTYPE svg PUBLIC "-//W3C//DTD SVG 1.1//EN" "http://www.w3.org/Graphics/SVG/1.1/DTD/svg11.dtd">
<!-- Creator: CorelDRAW -->
<svg xmlns="http://www.w3.org/2000/svg" xml:space="preserve" width="2048px" height="2048px" style="shape-rendering:geometricPrecision; text-rendering:geometricPrecision; image-rendering:optimizeQuality; fill-rule:evenodd; clip-rule:evenodd"
viewBox="0 0 2048 2048"
 xmlns:xlink="http://www.w3.org/1999/xlink">
 <defs>
  <style type="text/css">
   <![CDATA[
    .fil0 {fill:#42A5F5}
    .fil1 {fill:#FFFFFE}
    .fil2 {fill:#FFFFFE;fill-rule:nonzero}
   ]]>
  </style>
 </defs>
 <g id="Layer_x0020_1">
  <metadata id="CorelCorpID_0Corel-Layer"/>
  <rect class="fil0" width="2048" height="2048" rx="256.001" ry="256.001"/>
  <path class="fil1" d="M1010.11 255.999c184.371,0 351.861,17.0953 473.612,44.7331 133.772,30.365 216.513,77.6587 216.513,134.675 0,57.0178 -82.741,104.315 -216.512,134.682 -121.75,27.639 -289.242,44.7366 -473.613,44.7366 -184.367,0 -351.857,-17.0977 -473.605,-44.7366 -133.769,-30.3673 -216.509,-77.6658 -216.509,-134.682 0,-57.0142 82.741,-104.31 216.51,-134.675 121.749,-27.6378 289.237,-44.7331 473.604,-44.7331zm271.794 116.697c-1.14685,-0.451181 -2.31969,-0.871654 -3.52323,-1.25197 32.3221,4.47874 57.7831,9.75709 75.4536,15.5315 29.4425,9.62127 44.9339,24.652 44.9339,44.5937 -35.4449,125.577 -777.309,97.0642 -777.309,0 0,-21.5965 19.1835,-37.6772 54.9981,-47.537 20.041,-5.52048 47.4721,-10.5012 81.2292,-14.6516 -40.5,9.41694 -64.3619,21.9095 -64.3619,36.3425 0,18.3036 38.3563,33.4855 100.365,43.2343 56.439,8.87245 134.081,14.361 219.548,14.361 85.4682,0 163.112,-5.48859 219.552,-14.361 62.0103,-9.74883 100.367,-24.9307 100.367,-43.2343 0,-12.7996 -18.763,-24.0721 -51.2528,-33.0272z"/>
  <path class="fil2" d="M1656.23 716.598l1.45748 0.823229c34.5095,19.6973 52.6902,43.4622 52.6902,70.2367 0,49.1599 -68.941,89.3209 -180.399,114.512 -99.4513,22.4764 -236.126,36.3803 -386.448,36.3803 -150.321,0 -286.996,-13.9039 -386.448,-36.3803 -111.458,-25.1906 -180.398,-65.3516 -180.398,-114.512 0,-6.61536 1.10315,-13.0488 3.28937,-19.2851 10.2201,2.65512 19.7669,4.92638 28.2733,6.84922 65.8878,14.8914 133.857,24.2977 201.062,30.7536 80.8064,7.76221 162.256,11.1886 243.424,11.1886 81.1678,0 162.618,-3.42638 243.424,-11.1886 67.2048,-6.45591 135.174,-15.8622 201.063,-30.7536 41.8843,-9.46536 108.765,-27.2918 159.01,-58.6241z"/>
  <path class="fil2" d="M1608.99 913.166c53.4355,19.0488 83.0788,45.1241 83.0788,76.2272 0,42.5008 -61.089,76.3938 -159.855,96.8351 -86.2654,17.8524 -204.714,28.8969 -334.889,28.8969 -130.174,0 -248.623,-11.0445 -334.89,-28.8969 -98.765,-20.4414 -159.855,-54.3343 -159.855,-96.8351 0,-21.9685 14.4,-41.3315 41.4485,-57.3922 2.04685,0.477166 4.05355,0.940158 6,1.37953 58.3808,13.1953 118.595,21.5362 178.14,27.2599 71.491,6.87166 143.551,9.90828 215.362,9.90828 71.8111,0 143.871,-3.03662 215.362,-9.90828 59.5453,-5.72363 119.759,-14.0646 178.14,-27.2599 20.0433,-4.52953 45.6626,-11.0504 71.9575,-20.2146zm-844.71 72.404c-0.138189,0.111024 -0.262205,0.218504 -0.390945,0.327166 0.12874,-0.108662 0.252756,-0.216142 0.390945,-0.327166zm-2.25118 2.28662c-0.0637796,0.0933072 -0.12874,0.185433 -0.183071,0.276378 0.0543308,-0.0897638 0.119291,-0.184252 0.183071,-0.276378zm-0.393307 0.718111c-0.0295276,0.0696851 -0.0661418,0.141732 -0.0897638,0.210236 0.0236221,-0.068504 0.0602363,-0.140551 0.0897638,-0.210236z"/>
  <path class="fil2" d="M1650.72 1081.56c33.8764,16.9417 52.3182,38.3504 52.3182,63.0922 0,40.1599 -53.3339,72.1737 -139.562,91.4658 -74.1001,16.5791 -175.743,26.8347 -287.362,26.8347 -111.62,0 -213.265,-10.2555 -287.365,-26.8347 -86.2264,-19.2921 -139.562,-51.3059 -139.562,-91.4658 0,-9.49371 2.63622,-18.476 7.78111,-26.8831 109.047,22.4563 229.267,29.3528 340.36,29.3528 111.437,0 232.06,-6.9378 341.374,-29.5607 30.215,-6.25276 74.3753,-17.1673 112.017,-36.0012z"/>
  <path class="fil2" d="M1656.27 1239.51c11.9976,11.5748 18.3709,24.7984 18.3709,39.3933 0,35.6599 -41.3469,63.5989 -108.194,79.943 -55.7504,13.6299 -132.105,22.0606 -215.847,22.0606 -83.7402,0 -160.095,-8.43072 -215.845,-22.0606 -66.8469,-16.3441 -108.194,-44.2831 -108.194,-79.943 0,-0.908268 0.0271654,-1.81063 0.0744095,-2.70709 81.554,14.0599 168.564,18.7595 249.48,18.7595 95.9682,0 200.509,-6.61064 294.349,-27.6071 24.4618,-5.47323 56.5004,-14.1886 85.806,-27.8386z"/>
  <path class="fil2" d="M1627.35 1372.41c11.0563,10.3181 16.9725,22.0512 16.9725,34.9689 0,32.1508 -38.5205,57.1477 -100.794,71.5713 -50.0304,11.589 -118.381,18.7571 -193.187,18.7571 -74.8075,0 -143.159,-7.16812 -193.19,-18.7571 -62.2725,-14.4236 -100.794,-39.4205 -100.794,-71.5713 0,-12.9555 6.01536,-24.7264 17.2252,-35.0847 18.1914,7.88977 37.037,13.5945 53.5725,17.6374 70.8816,17.3303 150.645,22.976 223.445,22.976 72.7997,0 152.564,-5.64567 223.446,-22.976 16.4539,-4.02284 35.1969,-9.69331 53.3044,-17.5217z"/>
  <path class="fil2" d="M1521.76 1516.08c3.11457,8.10827 4.84489,18.1193 4.84489,30.5587 0,28.4445 -29.9492,48.8977 -78.3709,58.9713 -36.9839,7.69371 -87.3568,11.3658 -142.349,9.19016 -54.9922,-2.17559 -105.365,-9.83268 -142.349,-20.452 -48.4217,-13.9051 -78.3709,-36.7276 -78.3709,-65.1733 0,-13.0984 5.91615,-24.4618 16.9417,-33.8374 16.3677,6.60001 33.117,11.3752 47.8241,14.7815 63.8327,14.7862 135.024,19.5827 200.411,19.5827 55.6406,0 115.482,-3.47481 171.418,-13.6217z"/>
  <path class="fil2" d="M1467.7 1633.89c0.0283465,0.662599 0.0425197,1.32874 0.0425197,1.99843 0,27.9201 -26.4366,48.1146 -69.1772,58.1871 -31.6902,7.4693 -74.902,11.0894 -122.114,9.08859 -47.2122,-1.99961 -90.4217,-9.28111 -122.113,-19.4339 -42.7394,-13.6937 -69.1772,-36.1276 -69.1772,-64.0489 0,-8.49686 2.34449,-16.2697 6.80315,-23.2477 18.9295,13.5071 42.026,22.7256 62.7355,28.6725 47.4107,13.6134 100.735,19.7232 149.916,21.6697 48.7512,1.92874 102.252,0.124016 150.131,-9.83623 4.24016,-0.882284 8.57599,-1.89567 12.9532,-3.04961z"/>
  <path class="fil2" d="M1381.76 1729.97c-5.89489,20.9788 -26.5949,37.4185 -57.0343,47.6233 -26.5441,8.89961 -62.6245,14.4047 -101.94,14.4047 -39.3166,0 -75.3969,-5.50512 -101.941,-14.4047 -36.3059,-12.1713 -58.7611,-33.2138 -58.7611,-60.2457 0,-14.7378 6.47245,-27.6981 18.3059,-38.3776 17.6776,16.5543 41.5559,27.9851 64.1847,35.2347 40.9512,13.1197 87.6709,19.1162 130.521,20.9315 34.363,1.45512 71.6918,0.457087 106.664,-5.16615z"/>
  <path class="fil2" d="M1644.37 548.241c3.29882,2.0752 6.22441,4.04528 8.68938,5.86654 25.4658,18.8114 38.6233,40.3111 38.6233,63.8693 0,53.6575 -77.0091,97.8946 -201.516,126.033 -112.5,25.4268 -267.202,41.1544 -437.432,41.1544 -170.23,0 -324.932,-15.7276 -437.431,-41.1544 -124.507,-28.1386 -201.517,-72.3756 -201.517,-126.033 0,-15.9815 6.07323,-31.0276 17.9492,-44.941 35.9693,13.2921 71.6693,22.3536 97.6879,28.2603 71.2087,16.1646 144.689,26.3717 217.332,33.3792 87.4194,8.4319 175.543,12.1512 263.357,12.1512 87.8162,0 175.94,-3.71929 263.361,-12.1512 72.6449,-7.00749 146.126,-17.2146 217.336,-33.3792 39.7725,-9.02953 102.165,-25.4185 153.561,-53.0552z"/>
 </g>
</svg>
