<?xml version="1.0" encoding="UTF-8"?>
<!DOCTYPE svg PUBLIC "-//W3C//DTD SVG 1.1//EN" "http://www.w3.org/Graphics/SVG/1.1/DTD/svg11.dtd">
<!-- Creator: CorelDRAW -->
<svg xmlns="http://www.w3.org/2000/svg" xml:space="preserve" width="2048px" height="2048px" style="shape-rendering:geometricPrecision; text-rendering:geometricPrecision; image-rendering:optimizeQuality; fill-rule:evenodd; clip-rule:evenodd"
viewBox="0 0 2048 2048"
 xmlns:xlink="http://www.w3.org/1999/xlink">
 <defs>
  <style type="text/css">
   <![CDATA[
    .fil0 {fill:#424242}
    .fil1 {fill:#FFFFFE;fill-rule:nonzero}
   ]]>
  </style>
 </defs>
 <g id="Layer_x0020_1">
  <metadata id="CorelCorpID_0Corel-Layer"/>
  <rect class="fil0" width="2048" height="2048" rx="256.001" ry="256.001"/>
  <path class="fil1" d="M286.194 1632.02c0,-203.247 82.3855,-387.257 215.583,-520.454 133.198,-133.198 317.208,-215.583 520.453,-215.583 203.245,0 387.255,82.3855 520.453,215.583 133.198,133.198 215.583,317.208 215.583,520.454l-64.0016 0c0,-185.581 -75.2197,-353.592 -196.832,-475.204 -121.612,-121.612 -289.623,-196.832 -475.203,-196.832 -185.58,0 -353.59,75.2197 -475.203,196.832 -121.612,121.612 -196.832,289.623 -196.832,475.204l-64.0016 0z"/>
  <path class="fil1" d="M705.234 660.537c52.6111,0 100.24,21.3284 134.719,55.8083 34.4811,34.4823 55.8071,82.1174 55.8071,134.726 0,7.95237 -0.499607,15.8173 -1.46811,23.5677 -110.786,18.6059 -215.791,61.2437 -308.117,125.034 -11.5488,-9.2693 -21.9957,-19.8532 -31.1067,-31.5272 -25.291,-32.4012 -40.3607,-73.0465 -40.3607,-117.076 0,-52.6087 21.3272,-100.243 55.8071,-134.725 34.4776,-34.4788 82.1103,-55.8083 134.719,-55.8083z"/>
  <polygon class="fil1" points="672.078,596.537 672.075,436.538 735.826,436.538 735.83,596.537 "/>
  <polygon class="fil1" points="447.76,884.54 287.76,884.54 287.76,820.538 447.76,820.538 "/>
  <polygon class="fil1" points="503.387,697.413 393.135,587.16 438.385,541.909 548.638,652.163 "/>
  <polygon class="fil1" points="858.882,652.163 969.134,541.909 1014.38,587.16 904.132,697.413 "/>
  <polygon class="fil1" points="1118.01,863.984 958.012,863.984 958.012,799.983 1118.01,799.983 "/>
  <polygon class="fil1" points="378.888,1100.17 489.134,989.913 534.384,1035.16 424.139,1145.42 "/>
  <path class="fil1" d="M415.23 1632.02c0,-167.614 67.9441,-319.366 177.789,-429.211 109.847,-109.846 261.598,-177.789 429.212,-177.789 167.614,0 319.364,67.943 429.212,177.789 109.845,109.845 177.789,261.597 177.789,429.211l-64.0016 0c0,-149.948 -60.7784,-285.701 -159.038,-383.96 -98.2619,-98.2607 -234.013,-159.038 -383.961,-159.038 -149.948,0 -285.699,60.7772 -383.961,159.038 -98.2595,98.2595 -159.038,234.012 -159.038,383.96l-64.0016 0z"/>
  <path class="fil1" d="M542.011 1632.02c0,-132.604 53.752,-252.659 140.656,-339.564 86.9032,-86.9044 206.959,-140.656 339.564,-140.656 132.605,0 252.66,53.752 339.564,140.656 86.9044,86.9044 140.656,206.96 140.656,339.564l-64.0016 0c0,-114.938 -46.5863,-218.994 -121.905,-294.313 -75.3178,-75.319 -179.374,-121.905 -294.313,-121.905 -114.939,0 -218.995,46.5863 -294.313,121.905 -75.319,75.319 -121.905,179.375 -121.905,294.313l-64.0016 0z"/>
 </g>
</svg>
