<?xml version="1.0" encoding="UTF-8"?>
<!DOCTYPE svg PUBLIC "-//W3C//DTD SVG 1.1//EN" "http://www.w3.org/Graphics/SVG/1.1/DTD/svg11.dtd">
<!-- Creator: CorelDRAW -->
<svg xmlns="http://www.w3.org/2000/svg" xml:space="preserve" width="2048px" height="2048px" style="shape-rendering:geometricPrecision; text-rendering:geometricPrecision; image-rendering:optimizeQuality; fill-rule:evenodd; clip-rule:evenodd"
viewBox="0 0 2048 2048"
 xmlns:xlink="http://www.w3.org/1999/xlink">
 <defs>
  <style type="text/css">
   <![CDATA[
    .fil0 {fill:none}
    .fil1 {fill:#9E9E9E}
    .fil2 {fill:#FFFFFE;fill-rule:nonzero}
   ]]>
  </style>
 </defs>
 <g id="Layer_x0020_1">
  <metadata id="CorelCorpID_0Corel-Layer"/>
  <rect class="fil0" width="2048" height="2048"/>
  <rect class="fil1" width="2048" height="2048" rx="256.001" ry="256.001"/>
  <path class="fil2" d="M1397.88 756.718c12.5575,-8.76497 26.1685,-15.4524 40.3335,-19.9051 14.3398,-4.50709 29.2748,-6.83977 44.2973,-6.83977 40.8662,0 77.8678,16.5697 104.65,43.3524 26.7851,26.7851 43.3536,63.7878 43.3536,104.65 0,36.8374 -13.7197,73.9949 -36.7925,101.369 -22.7091,26.9433 -54.4359,44.7544 -91.5839,44.8465l-702.277 -0.18189 0 -63.7489 702.277 0.18189c16.7209,-0.0413386 31.6429,-8.81694 42.8351,-22.0961 13.5095,-16.0276 21.5421,-38.152 21.5421,-60.3709 0,-23.1992 -9.40276,-44.2028 -24.6024,-59.4024 -15.1984,-15.1984 -36.202,-24.6012 -59.4024,-24.6012 -8.72009,0 -17.2477,1.30984 -25.2981,3.83977 -8.21812,2.58307 -15.9272,6.33308 -22.8343,11.1532l-36.4985 -52.2473z"/>
  <path class="fil2" d="M1595.73 1273.51c6.90945,4.82481 14.6173,8.57481 22.8319,11.1579 8.04922,2.5311 16.5768,3.84213 25.2945,3.84213 23.2016,0 44.2063,-9.40276 59.4071,-24.6036 15.2008,-15.2008 24.6036,-36.2044 24.6036,-59.406 0,-22.1351 -8.03386,-44.2122 -21.5433,-60.2374l0 -0.125197c-11.1921,-13.278 -25.5839,-24.0437 -42.3083,-24.0862l-960.248 -0.28937 0 -63.7489 960.248 0.28937c37.1197,0.0956694 68.2902,19.8638 90.9957,46.7634l0.0614174 -0.0519685c23.074,27.3709 36.7937,64.5697 36.7937,101.486 0,40.8662 -16.5685,77.8678 -43.3548,104.654 -26.7862,26.7862 -63.7902,43.3548 -104.655,43.3548 -15.0236,0 -29.9575,-2.33386 -44.2937,-6.84213 -14.1662,-4.45512 -27.776,-11.1437 -40.3311,-19.9099l36.4985 -52.2473z"/>
  <path class="fil2" d="M1421.4 1274.36c2.55355,1.78465 5.48741,3.19843 8.68583,4.20355 3.0378,0.955513 6.31772,1.45039 9.72402,1.45039 8.85473,0 16.8721,-3.58701 22.6701,-9.38623 5.79922,-5.79804 9.38623,-13.8154 9.38623,-22.6701 0,-8.98347 -3.15473,-17.8122 -8.46142,-24.1075 -3.62008,-4.29449 -8.14607,-7.13504 -12.8835,-7.15985l-544 0 0.250394 -63.7489 544 0c25.0323,0.132284 46.2804,11.9917 61.3819,29.9103 14.8725,17.6433 23.7118,41.491 23.7118,65.106 0,26.5205 -10.7528,50.5359 -28.1374,67.9182 -17.3823,17.3847 -41.3977,28.1374 -67.9182,28.1374 -9.70985,0 -19.3961,-1.51654 -28.7233,-4.4504 -9.15827,-2.88071 -17.9941,-7.2319 -26.1851,-12.9555l36.4985 -52.2473z"/>
  <path class="fil2" d="M864.147 706.178c88.0595,0 167.792,35.6988 225.506,93.4111 35.6091,35.6091 62.8323,79.6016 78.4666,128.759l-70.9335 -0.0188977 -329.322 -0.0767717 0 95.778 -96.0993 -0.0295276 0 127.748 203.01 0.0614174 -0.380315 96.8765 106.669 0 110.48 0c-0.628347,0.637796 -1.25669,1.27677 -1.88977,1.90984 -57.7146,57.7158 -137.446,93.4135 -225.507,93.4135 -88.0642,0 -167.792,-35.6977 -225.507,-93.4123 -57.7122,-57.7134 -93.4111,-137.443 -93.4111,-225.508 0,-88.0595 35.6988,-167.79 93.4123,-225.502 57.7134,-57.7122 137.441,-93.4099 225.506,-93.4099z"/>
  <polygon class="fil2" points="832.147,640.009 832.147,415.99 896.147,415.99 896.147,640.009 "/>
  <polygon class="fil2" points="569.997,775.105 411.593,616.701 456.847,571.446 615.252,729.851 "/>
  <polygon class="fil2" points="1113.04,729.85 1271.45,571.446 1316.7,616.7 1158.3,775.105 "/>
  <polygon class="fil2" points="480.157,1056 256.139,1056 256.139,992.002 480.157,992.002 "/>
  <polygon class="fil2" points="832.149,1632.01 832.149,1408.01 896.148,1408.01 896.148,1632.01 "/>
  <polygon class="fil2" points="1271.45,1476.56 1113.06,1318.16 1158.31,1272.91 1316.7,1431.3 "/>
  <polygon class="fil2" points="411.594,1431.3 569.986,1272.91 615.24,1318.16 456.85,1476.56 "/>
 </g>
</svg>
