<?xml version="1.0" encoding="UTF-8"?>
<!DOCTYPE svg PUBLIC "-//W3C//DTD SVG 1.1//EN" "http://www.w3.org/Graphics/SVG/1.1/DTD/svg11.dtd">
<!-- Creator: CorelDRAW -->
<svg xmlns="http://www.w3.org/2000/svg" xml:space="preserve" width="2048px" height="2048px" style="shape-rendering:geometricPrecision; text-rendering:geometricPrecision; image-rendering:optimizeQuality; fill-rule:evenodd; clip-rule:evenodd"
viewBox="0 0 2048 2048"
 xmlns:xlink="http://www.w3.org/1999/xlink">
 <defs>
  <style type="text/css">
   <![CDATA[
    .fil0 {fill:#795548}
    .fil1 {fill:#FFFFFE;fill-rule:nonzero}
   ]]>
  </style>
 </defs>
 <g id="Layer_x0020_1">
  <metadata id="CorelCorpID_0Corel-Layer"/>
  <rect class="fil0" width="2048" height="2048" rx="256.001" ry="256.001"/>
  <g id="_482519816">
   <path id="_482517056" class="fil1" d="M1114.17 951.082c-24.7795,17.4331 -44.1331,42.1524 -55.0158,70.9843l-70.2934 0c-10.8862,-28.8295 -30.241,-53.5512 -55.0229,-70.9855 -23.9622,-16.8543 -52.9122,-26.8595 -84.078,-27.124 -32.2477,-0.165354 -62.1154,9.79961 -86.6138,26.928 -25.2437,17.6457 -44.8701,42.9603 -55.6111,72.6839l-70.8816 -0.590552c-10.2898,-29.8618 -29.504,-55.454 -54.4536,-73.5036 -24.2752,-17.563 -53.9079,-27.9992 -85.9512,-28.3063 -26.5571,-0.133465 -51.4819,6.62008 -73.1127,18.6177 -22.5461,12.5043 -41.5548,30.6555 -55.1634,52.6099l-68.9705 -25.8839c7.6193,-45.8138 19.4103,-90.1335 34.9465,-132.542 15.8032,-43.1327 35.6445,-84.5776 59.0599,-123.878l0.441733 -0.734646 19.4599 -30.7961 0.588189 -0.881103c67.1587,-100.52 158.299,-183.517 265.151,-240.803 103.018,-55.2296 220.612,-86.4816 345.359,-86.4048 124.743,-0.0767717 242.339,31.1752 345.352,86.406 106.851,57.2847 197.991,140.282 265.149,240.802l0.585827 0.881103 19.461 30.7961 0.441733 0.734646c23.4189,39.3059 43.2626,80.7568 59.067,123.893 15.5067,42.3237 27.2953,86.6835 34.9382,132.676l-68.9693 25.7351c-13.6099,-21.9543 -32.6162,-40.1055 -55.1622,-52.6099 -21.6331,-11.9976 -46.5591,-18.7512 -73.1162,-18.6177 -32.0398,0.307087 -61.6713,10.7433 -85.9489,28.3075 -24.952,18.0484 -44.165,43.6418 -54.4548,73.5024l-70.8816 0.590552c-10.741,-29.7236 -30.3673,-55.0382 -55.6087,-72.6839 -24.4984,-17.1284 -54.3662,-27.0933 -86.615,-26.928 -31.1658,0.264567 -60.1205,10.2709 -84.0768,27.1252z"/>
   <path id="_482520176" class="fil1" d="M928.98 1680.29c0.643701,5.55355 2.90079,10.9252 6.68032,15.3839 3.73347,4.4067 8.63977,7.48819 14.0079,9.03072 5.43898,1.56614 11.3327,1.5626 16.9512,-0.219685 5.44843,-1.72914 10.115,-5.06339 13.5555,-9.39568 3.16536,-3.98386 4.82481,-8.88662 5.67756,-13.8815l0.0283465 -1329.53 38.4248 -84.7985 38.1792 84.606 0.252756 1334.13c-1.87795,21.0213 -11.2441,40.513 -23.7402,56.2465 -12.5717,15.8303 -29.6788,28.0323 -49.7304,34.3937 -19.9866,6.33426 -40.8957,6.36142 -60.1867,0.810237 -19.3689,-5.57481 -37.1433,-16.7752 -50.7733,-32.8536 -13.5921,-16.0358 -21.7063,-35.3764 -24.0331,-55.3843 -1.48937,-12.815 -0.603544,-25.9016 2.73544,-38.5677 7.27323,-29.0882 46.1788,-43.1398 66.1406,-24.4122 22.0524,20.6906 0.955513,34.7138 5.82993,54.45z"/>
  </g>
 </g>
</svg>
